{
    "asset": {
        "generator": "Khronos glTF Blender I/O v1.2.75",
        "version": "2.0"
    },
    "scene": 0,
    "scenes": [{
        "name": "Scene",
        "nodes": [
            10,
            11,
            12,
            13,
            14
        ]
    }],
    "nodes": [{
            "camera": 0,
            "name": "follow_cam",
            "rotation": [
                -0.7071067690849304,
                0,
                0,
                0.7071067690849304
            ]
        },
        {
            "children": [
                0
            ],
            "name": "follow_cam",
            "rotation": [
                1.6081023204606026e-05,
                0.7975839376449585,
                -0.6032080054283142,
                2.1262922018649988e-05
            ],
            "translation": [
                0.00035190017661079764,
                2.809999942779541,
                -6.609999656677246
            ]
        },
        {
            "camera": 1,
            "name": "fpv_cam",
            "rotation": [
                -0.7071067690849304,
                0,
                0,
                0.7071067690849304
            ]
        },
        {
            "children": [
                2
            ],
            "name": "fpv_cam",
            "rotation": [
                1.804496241675224e-05,
                0.7360966801643372,
                -0.6768764853477478,
                1.962372516572941e-05
            ],
            "translation": [
                2.342451989534311e-05,
                0.46235498785972595,
                -0.4399999678134918
            ]
        },
        {
            "name": "light",
            "translation": [
                5.49010746908607e-06,
                0.6825442910194397,
                -0.1031247153878212
            ]
        },
        {
            "children": [
                4
            ],
            "name": "lights",
            "translation": [
                0,
                -0.10000000149011612,
                0
            ]
        },
        {
            "mesh": 0,
            "name": "prop_kers",
            "translation": [
                6.0142017900943756e-05,
                0.5110443234443665,
                -1.1298861503601074
            ]
        },
        {
            "children": [
                6
            ],
            "name": "props",
            "translation": [
                0,
                -0.10000000149011612,
                0
            ]
        },
        {
            "mesh": 1,
            "name": "steering_wheel",
            "scale": [
                0.06314080953598022,
                0.03707754239439964,
                0.014495083130896091
            ],
            "translation": [
                -8.990393689600751e-05,
                0.03141140192747116,
                0.009333202615380287
            ]
        },
        {
            "children": [
                8
            ],
            "name": "steering_wheel_pivot",
            "rotation": [
                1.686176983639598e-05,
                0.7745651602745056,
                -0.6324941515922546,
                2.0649260477512144e-05
            ],
            "translation": [
                4.4978783080296125e-06,
                0.3652207553386688,
                -0.0844869464635849
            ]
        },
        {
            "children": [
                1,
                3,
                5,
                7,
                9
            ],
            "mesh": 2,
            "name": "main",
            "translation": [
                0,
                0.10000000149011612,
                0
            ]
        },
        {
            "mesh": 3,
            "name": "back_left",
            "translation": [
                0.490160197019577,
                0.2999995946884155,
                -0.8771404027938843
            ]
        },
        {
            "mesh": 4,
            "name": "back_right",
            "translation": [
                -0.4900347888469696,
                0.30000001192092896,
                -0.880139946937561
            ]
        },
        {
            "mesh": 5,
            "name": "front_left",
            "translation": [
                0.4292440116405487,
                0.2999995946884155,
                0.6398599743843079
            ]
        },
        {
            "mesh": 6,
            "name": "front_right",
            "translation": [
                -0.4292440116405487,
                0.30000001192092896,
                0.6398599743843079
            ]
        }
    ],
    "cameras": [{
            "name": "Camera.002",
            "perspective": {
                "yfov": 0.5631968779732008,
                "zfar": 2000,
                "znear": 0.10000000149011612
            },
            "type": "perspective"
        },
        {
            "name": "Camera.001",
            "perspective": {
                "yfov": 0.578863678051448,
                "zfar": 1000,
                "znear": 0.10000000149011612
            },
            "type": "perspective"
        }
    ],
    "materials": [{
        "doubleSided": true,
        "emissiveFactor": [
            0,
            0,
            0
        ],
        "name": "Material.003",
        "pbrMetallicRoughness": {
            "baseColorTexture": {
                "index": 0,
                "texCoord": 0
            },
            "metallicFactor": 0,
            "roughnessFactor": 0
        }
    }],
    "meshes": [{
            "name": "Mesh body.002",
            "primitives": [{
                "attributes": {
                    "POSITION": 0,
                    "NORMAL": 1,
                    "TEXCOORD_0": 2
                },
                "indices": 3,
                "material": 0
            }]
        },
        {
            "name": "Cube.014",
            "primitives": [{
                "attributes": {
                    "POSITION": 4,
                    "NORMAL": 5,
                    "TEXCOORD_0": 6
                },
                "indices": 7,
                "material": 0
            }]
        },
        {
            "name": "Mesh body.001",
            "primitives": [{
                "attributes": {
                    "POSITION": 8,
                    "NORMAL": 9,
                    "TEXCOORD_0": 10
                },
                "indices": 11,
                "material": 0
            }]
        },
        {
            "name": "Mesh wheel_frontLeft.004",
            "primitives": [{
                "attributes": {
                    "POSITION": 12,
                    "NORMAL": 13,
                    "TEXCOORD_0": 14
                },
                "indices": 15,
                "material": 0
            }]
        },
        {
            "name": "Mesh wheel_frontLeft.005",
            "primitives": [{
                "attributes": {
                    "POSITION": 16,
                    "NORMAL": 17,
                    "TEXCOORD_0": 18
                },
                "indices": 19,
                "material": 0
            }]
        },
        {
            "name": "Mesh wheel_frontLeft.007",
            "primitives": [{
                "attributes": {
                    "POSITION": 20,
                    "NORMAL": 21,
                    "TEXCOORD_0": 22
                },
                "indices": 23,
                "material": 0
            }]
        },
        {
            "name": "Mesh wheel_frontLeft.008",
            "primitives": [{
                "attributes": {
                    "POSITION": 24,
                    "NORMAL": 25,
                    "TEXCOORD_0": 26
                },
                "indices": 27,
                "material": 0
            }]
        }
    ],
    "textures": [{
        "sampler": 0,
        "source": 0
    }],
    "images": [{
        "mimeType": "image/png",
        "name": "colorPallet1",
        "uri": "colorPallet1.png"
    }],
    "accessors": [{
            "bufferView": 0,
            "componentType": 5126,
            "count": 16,
            "max": [
                0.2500079870223999,
                0.08180084079504013,
                0.14780792593955994
            ],
            "min": [
                -0.2500079870223999,
                -0.08180075138807297,
                -0.14780814945697784
            ],
            "type": "VEC3"
        },
        {
            "bufferView": 1,
            "componentType": 5126,
            "count": 16,
            "type": "VEC3"
        },
        {
            "bufferView": 2,
            "componentType": 5126,
            "count": 16,
            "type": "VEC2"
        },
        {
            "bufferView": 3,
            "componentType": 5123,
            "count": 24,
            "type": "SCALAR"
        },
        {
            "bufferView": 4,
            "componentType": 5126,
            "count": 1060,
            "max": [
                1.00142240524292,
                0.33928728103637695,
                1.9140626192092896
            ],
            "min": [
                -0.9985775351524353,
                -2.3517088890075684,
                -3.2018165588378906
            ],
            "type": "VEC3"
        },
        {
            "bufferView": 5,
            "componentType": 5126,
            "count": 1060,
            "type": "VEC3"
        },
        {
            "bufferView": 6,
            "componentType": 5126,
            "count": 1060,
            "type": "VEC2"
        },
        {
            "bufferView": 7,
            "componentType": 5123,
            "count": 2100,
            "type": "SCALAR"
        },
        {
            "bufferView": 8,
            "componentType": 5126,
            "count": 1361,
            "max": [
                0.6000231504440308,
                0.6325442790985107,
                1.2799102067947388
            ],
            "min": [
                -0.6000088453292847,
                0,
                -1.279904842376709
            ],
            "type": "VEC3"
        },
        {
            "bufferView": 9,
            "componentType": 5126,
            "count": 1361,
            "type": "VEC3"
        },
        {
            "bufferView": 10,
            "componentType": 5126,
            "count": 1361,
            "type": "VEC2"
        },
        {
            "bufferView": 11,
            "componentType": 5123,
            "count": 2052,
            "type": "SCALAR"
        },
        {
            "bufferView": 12,
            "componentType": 5126,
            "count": 708,
            "max": [
                0.15993192791938782,
                0.30000001192092896,
                0.30000320076942444
            ],
            "min": [
                -0.14009767770767212,
                -0.30000001192092896,
                -0.30000749230384827
            ],
            "type": "VEC3"
        },
        {
            "bufferView": 13,
            "componentType": 5126,
            "count": 708,
            "type": "VEC3"
        },
        {
            "bufferView": 14,
            "componentType": 5126,
            "count": 708,
            "type": "VEC2"
        },
        {
            "bufferView": 15,
            "componentType": 5123,
            "count": 852,
            "type": "SCALAR"
        },
        {
            "bufferView": 16,
            "componentType": 5126,
            "count": 708,
            "max": [
                0.14009763300418854,
                0.30000001192092896,
                0.3000074625015259
            ],
            "min": [
                -0.159931942820549,
                -0.30000001192092896,
                -0.30000320076942444
            ],
            "type": "VEC3"
        },
        {
            "bufferView": 17,
            "componentType": 5126,
            "count": 708,
            "type": "VEC3"
        },
        {
            "bufferView": 18,
            "componentType": 5126,
            "count": 708,
            "type": "VEC2"
        },
        {
            "bufferView": 19,
            "componentType": 5123,
            "count": 852,
            "type": "SCALAR"
        },
        {
            "bufferView": 20,
            "componentType": 5126,
            "count": 708,
            "max": [
                0.14009758830070496,
                0.30000001192092896,
                0.30000749230384827
            ],
            "min": [
                -0.15993188321590424,
                -0.30000001192092896,
                -0.30000320076942444
            ],
            "type": "VEC3"
        },
        {
            "bufferView": 21,
            "componentType": 5126,
            "count": 708,
            "type": "VEC3"
        },
        {
            "bufferView": 22,
            "componentType": 5126,
            "count": 708,
            "type": "VEC2"
        },
        {
            "bufferView": 23,
            "componentType": 5123,
            "count": 852,
            "type": "SCALAR"
        },
        {
            "bufferView": 24,
            "componentType": 5126,
            "count": 708,
            "max": [
                0.15993189811706543,
                0.30000001192092896,
                0.30000320076942444
            ],
            "min": [
                -0.14009754359722137,
                -0.30000001192092896,
                -0.3000074625015259
            ],
            "type": "VEC3"
        },
        {
            "bufferView": 25,
            "componentType": 5126,
            "count": 708,
            "type": "VEC3"
        },
        {
            "bufferView": 26,
            "componentType": 5126,
            "count": 708,
            "type": "VEC2"
        },
        {
            "bufferView": 27,
            "componentType": 5123,
            "count": 852,
            "type": "SCALAR"
        }
    ],
    "bufferViews": [{
            "buffer": 0,
            "byteLength": 192,
            "byteOffset": 0
        },
        {
            "buffer": 0,
            "byteLength": 192,
            "byteOffset": 192
        },
        {
            "buffer": 0,
            "byteLength": 128,
            "byteOffset": 384
        },
        {
            "buffer": 0,
            "byteLength": 48,
            "byteOffset": 512
        },
        {
            "buffer": 0,
            "byteLength": 12720,
            "byteOffset": 560
        },
        {
            "buffer": 0,
            "byteLength": 12720,
            "byteOffset": 13280
        },
        {
            "buffer": 0,
            "byteLength": 8480,
            "byteOffset": 26000
        },
        {
            "buffer": 0,
            "byteLength": 4200,
            "byteOffset": 34480
        },
        {
            "buffer": 0,
            "byteLength": 16332,
            "byteOffset": 38680
        },
        {
            "buffer": 0,
            "byteLength": 16332,
            "byteOffset": 55012
        },
        {
            "buffer": 0,
            "byteLength": 10888,
            "byteOffset": 71344
        },
        {
            "buffer": 0,
            "byteLength": 4104,
            "byteOffset": 82232
        },
        {
            "buffer": 0,
            "byteLength": 8496,
            "byteOffset": 86336
        },
        {
            "buffer": 0,
            "byteLength": 8496,
            "byteOffset": 94832
        },
        {
            "buffer": 0,
            "byteLength": 5664,
            "byteOffset": 103328
        },
        {
            "buffer": 0,
            "byteLength": 1704,
            "byteOffset": 108992
        },
        {
            "buffer": 0,
            "byteLength": 8496,
            "byteOffset": 110696
        },
        {
            "buffer": 0,
            "byteLength": 8496,
            "byteOffset": 119192
        },
        {
            "buffer": 0,
            "byteLength": 5664,
            "byteOffset": 127688
        },
        {
            "buffer": 0,
            "byteLength": 1704,
            "byteOffset": 133352
        },
        {
            "buffer": 0,
            "byteLength": 8496,
            "byteOffset": 135056
        },
        {
            "buffer": 0,
            "byteLength": 8496,
            "byteOffset": 143552
        },
        {
            "buffer": 0,
            "byteLength": 5664,
            "byteOffset": 152048
        },
        {
            "buffer": 0,
            "byteLength": 1704,
            "byteOffset": 157712
        },
        {
            "buffer": 0,
            "byteLength": 8496,
            "byteOffset": 159416
        },
        {
            "buffer": 0,
            "byteLength": 8496,
            "byteOffset": 167912
        },
        {
            "buffer": 0,
            "byteLength": 5664,
            "byteOffset": 176408
        },
        {
            "buffer": 0,
            "byteLength": 1704,
            "byteOffset": 182072
        }
    ],
    "samplers": [{
        "magFilter": 9728,
        "minFilter": 9984
    }],
    "buffers": [{
        "byteLength": 183776,
        "uri": "formula.bin"
    }]
}